<svg width="50" height="50" viewBox="0 0 32 32" fill="none" mlns="http://www.w3.org/2000/svg">
  <path
    d="M31.2747 6.91936C30.1613 7.41269 28.9653 7.74602 27.708 7.89669C29.0053 7.12041 29.9759 5.89865 30.4387 4.45936C29.2198 5.18334 27.8858 5.69295 26.4947 5.96602C25.5592 4.96718 24.3201 4.30513 22.9698 4.08266C21.6195 3.86019 20.2335 4.08975 19.027 4.73569C17.8205 5.38164 16.861 6.40784 16.2975 7.65496C15.734 8.90209 15.598 10.3004 15.9107 11.6327C13.4409 11.5087 11.0248 10.8668 8.81923 9.74856C6.61363 8.63037 4.66779 7.06091 3.108 5.14202C2.57467 6.06202 2.268 7.12869 2.268 8.26469C2.26741 9.28735 2.51924 10.2943 3.00117 11.1963C3.4831 12.0983 4.18022 12.8674 5.03067 13.4354C4.04437 13.404 3.07983 13.1375 2.21733 12.658V12.738C2.21723 14.1723 2.71338 15.5625 3.62158 16.6727C4.52978 17.7828 5.7941 18.5446 7.2 18.8287C6.28504 19.0763 5.32578 19.1128 4.39467 18.9354C4.79133 20.1695 5.56399 21.2487 6.60449 22.0219C7.64499 22.7951 8.90122 23.2236 10.1973 23.2474C7.99711 24.9746 5.27985 25.9115 2.48267 25.9074C1.98717 25.9075 1.4921 25.8786 1 25.8207C3.8393 27.6463 7.14445 28.6151 10.52 28.6114C21.9467 28.6114 28.1933 19.1474 28.1933 10.9394C28.1933 10.6727 28.1867 10.4034 28.1747 10.1367C29.3897 9.25799 30.4385 8.16989 31.272 6.92336L31.2747 6.91936V6.91936Z"
    fill="#1EB6BA"
  ></path>
</svg>